{
  "accessors": [
    {
      "bufferView": 0,
      "byteOffset": 0,
      "count": 36,
      "componentType": 5123,
      "type": "SCALAR",
      "min": [
        0
      ],
      "max": [
        35
      ]
    },
    {
      "bufferView": 1,
      "byteOffset": 0,
      "count": 36,
      "componentType": 5126,
      "type": "VEC3",
      "min": [
        -1,
        -1,
        -1
      ],
      "max": [
        1,
        1,
        1.000001
      ]
    },
    {
      "bufferView": 2,
      "byteOffset": 0,
      "count": 36,
      "componentType": 5126,
      "type": "VEC3",
      "min": [
        -1,
        -1,
        -1
      ],
      "max": [
        1,
        1,
        1
      ]
    },
    {
      "bufferView": 3,
      "byteOffset": 0,
      "count": 36,
      "componentType": 5126,
      "type": "VEC4",
      "min": [
        0,
        0,
        -1,
        -1
      ],
      "max": [
        1,
        0,
        0,
        1
      ]
    },
    {
      "bufferView": 4,
      "byteOffset": 0,
      "count": 36,
      "componentType": 5126,
      "type": "VEC2",
      "min": [
        -1,
        -1
      ],
      "max": [
        1,
        1
      ]
    }
  ],
  "asset": {
    "generator": "VKTS glTF 2.0 exporter",
    "version": "2.0"
  },
  "buffers": [
    {
      "uri": "variant_data.bin",
      "byteLength": 1800
    }
  ],
  "bufferViews": [
    {
      "buffer": 0,
      "byteLength": 72,
      "byteOffset": 0,
      "target": 34963
    },
    {
      "buffer": 0,
      "byteLength": 432,
      "byteOffset": 72,
      "target": 34962
    },
    {
      "buffer": 0,
      "byteLength": 432,
      "byteOffset": 504,
      "target": 34962
    },
    {
      "buffer": 0,
      "byteLength": 576,
      "byteOffset": 936,
      "target": 34962
    },
    {
      "buffer": 0,
      "byteLength": 288,
      "byteOffset": 1512,
      "target": 34962
    }
  ],
  "scene": 0,
  "extensions": {
    "FB_material_variants": {
      "default_tag": "red"
    }
  },
  "extensionsUsed": [
    "FB_material_variants"
  ],
  "images": [
    {
      "name": "Cube_BaseColor.png",
      "uri": "variant_img0.png"
    },
    {
      "name": "Cube_MetallicRoughness.png",
      "uri": "variant_img1.png"
    },
    {
      "name": "Cube_BaseColor.png",
      "uri": "variant_img2.png"
    }
  ],
  "materials": [
    {
      "alphaCutoff": 0.5,
      "alphaMode": "OPAQUE",
      "doubleSided": false,
      "name": "Cube",
      "pbrMetallicRoughness": {
        "baseColorFactor": [
          1,
          1,
          1,
          1
        ],
        "baseColorTexture": {
          "index": 0,
          "texCoord": 0
        },
        "metallicFactor": 1,
        "roughnessFactor": 1,
        "metallicRoughnessTexture": {
          "index": 1,
          "texCoord": 0
        }
      },
      "emissiveFactor": [
        0,
        0,
        0
      ]
    },
    {
      "alphaCutoff": 0.5,
      "alphaMode": "OPAQUE",
      "doubleSided": false,
      "name": "Cube",
      "pbrMetallicRoughness": {
        "baseColorFactor": [
          1,
          1,
          1,
          1
        ],
        "baseColorTexture": {
          "index": 2,
          "texCoord": 0
        },
        "metallicFactor": 1,
        "roughnessFactor": 1,
        "metallicRoughnessTexture": {
          "index": 1,
          "texCoord": 0
        }
      },
      "emissiveFactor": [
        0,
        0,
        0
      ]
    }
  ],
  "meshes": [
    {
      "name": "Cube",
      "primitives": [
        {
          "attributes": {
            "POSITION": 1,
            "NORMAL": 2,
            "TEXCOORD_0": 4,
            "TANGENT": 3
          },
          "extensions": {
            "FB_material_variants": {
              "mapping": [
                {
                  "material": 0,
                  "tags": [
                    "red"
                  ]
                },
                {
                  "material": 1,
                  "tags": [
                    "not_red"
                  ]
                }
              ]
            }
          },
          "indices": 0,
          "material": 0
        }
      ]
    }
  ],
  "nodes": [
    {
      "mesh": 0,
      "name": "Cube"
    }
  ],
  "samplers": [
    {
      "wrapS": 10497,
      "wrapT": 10497
    }
  ],
  "scenes": [
    {
      "nodes": [
        0
      ]
    }
  ],
  "textures": [
    {
      "sampler": 0,
      "source": 0
    },
    {
      "sampler": 0,
      "source": 1
    },
    {
      "sampler": 0,
      "source": 2
    }
  ]
}